<?xml version="1.0" encoding="UTF-8"?>
<!DOCTYPE svg PUBLIC "-//W3C//DTD SVG 1.1//EN" "http://www.w3.org/Graphics/SVG/1.1/DTD/svg11.dtd">
<svg version="1.1" xmlns="http://www.w3.org/2000/svg" xmlns:xlink="http://www.w3.org/1999/xlink" x="0" y="0" width="350" height="230" viewBox="0, 0, 350, 230">
  <g id="Livello_1">
    <g>
      <text transform="matrix(1, 0, 0, 1, 175, 126)">
        <tspan x="-148.962" y="-12.5" font-family="Backtothefuture2002-Regular" font-size="50" fill="#8C0C0C">servizio</tspan>
        <tspan x="-107.629" y="45.5" font-family="Backtothefuture2002-Regular" font-size="50" fill="#8C0C0C">spesa</tspan>
      </text>
      <path d="M59.241,69.481 Q65.369,69.481 67.444,71.044 Q69.519,72.606 69.336,75.377 Q69.153,78.148 68.567,81.444 L57.312,81.444 Q58.606,77.074 55.017,77.074 Q51.428,77.074 48.682,77.074 Q45.935,77.074 45.593,78.466 Q45.251,79.857 44.739,82.079 Q44.226,84.301 44.617,85.216 Q45.007,86.132 46.252,86.693 Q47.498,87.255 51.868,86.999 Q56.238,86.742 59.399,87.78 Q62.561,88.817 63.989,92.162 Q65.417,95.507 63.66,101.464 Q61.902,107.421 59.998,109.752 Q58.093,112.084 51.526,113.646 L37.415,113.646 Q23.547,114.159 27.283,103.783 L29.089,99.657 L40.198,99.657 L39.148,102.782 Q39.246,104.491 39.661,104.943 Q40.076,105.395 47.693,105.224 Q51.819,104.735 52.82,100.744 Q53.821,96.752 51.904,95.69 Q49.988,94.628 45.544,94.872 Q41.101,95.116 37.305,94.677 Q33.508,94.237 32.153,92.565 Q30.798,90.893 31.885,86.376 Q32.971,81.859 33.606,78.893 Q34.241,75.927 34.717,74.267 Q35.193,72.606 36.792,71.312 Q38.391,70.019 40.991,69.665 Q43.591,69.311 50.452,69.311 Q57.312,69.311 59.241,69.481 z M69.324,113.402 Q72.4,106.103 74.146,101.159 Q75.891,96.215 76.99,91.82 Q78.088,87.426 78.955,82.86 Q79.822,78.295 81.189,69.677 L92.932,69.677 L113.074,69.701 Q112.781,75.585 111.975,78.856 L91.443,78.686 Q90.833,83.056 90.222,86.01 L110.754,86.181 Q109.949,90.038 108.264,95.141 L87.634,95.141 Q85.266,102.44 84.387,104.271 L105.432,104.442 Q103.552,109.008 101.331,113.598 L69.202,113.598 z M112.341,113.842 Q116.443,104.638 118.347,99.462 Q120.251,94.286 121.631,89.22 Q123.01,84.154 123.926,78.795 Q124.841,73.437 125.11,69.115 L141.711,69.115 Q154.602,69.457 156.36,71.349 Q158.118,73.241 157.751,76.342 Q157.385,79.442 156.616,83.202 Q155.847,86.962 155.359,88.317 Q154.871,89.672 153.418,91.771 Q151.965,93.871 145.911,96.312 Q149.451,103.661 150.769,114.013 L137.83,114.013 Q137.073,108.764 135.791,106.237 Q134.509,103.71 130.994,99.999 Q130.115,102.855 129.504,104.308 Q128.894,105.761 125.476,113.842 L112.537,113.842 z M133.24,89.745 Q138.562,89.745 140.295,89.33 Q142.029,88.915 142.896,87.743 Q143.762,86.571 144.067,85.631 Q144.373,84.691 145.166,81.676 Q145.959,78.661 144.324,78.075 Q142.688,77.489 136.243,77.66 Q135.559,82.03 134.57,85.473 Q133.582,88.915 133.24,89.745 z M164.001,69.457 L175.671,69.481 Q175.964,75.023 175.647,82.348 Q175.33,89.672 172.644,102.831 Q178.87,93.603 180.762,89.135 Q182.654,84.667 184.094,80.211 Q185.535,75.756 187.219,69.457 L199.231,69.457 Q197.913,74.462 196.35,79.198 Q194.788,83.935 191.919,90.331 Q189.05,96.728 184.119,103.393 Q179.187,110.058 175.208,113.598 L159.875,113.598 Q161.682,104.32 162.146,100.06 Q162.61,95.8 163.281,90.978 Q163.953,86.156 164.026,80.59 Q164.099,75.023 164.099,72.338 Q164.099,69.652 164.026,69.823 z M195.837,113.646 L198.279,108.275 Q200.427,101.049 201.27,97.35 Q202.112,93.651 202.905,89.391 Q203.699,85.131 204.102,81.237 Q204.504,77.343 204.651,74.56 Q204.797,71.776 204.749,69.188 L216.98,69.555 Q216.541,77.343 216.15,81.884 Q215.759,86.425 214.575,92.077 Q213.391,97.729 211.829,102.538 Q210.266,107.348 207.703,113.646 z M260.046,69.579 Q260.046,72.558 260.144,79.027 L234.143,104.052 L255.432,104.076 Q255.432,104.076 255.005,105.468 Q254.578,106.859 251.917,113.72 L216.687,113.72 Q217.981,110.009 219.641,104.809 L246.252,79.394 L224.377,79.394 Q224.182,76.073 224.646,69.579 z M259.875,113.646 L262.317,108.275 Q264.465,101.049 265.308,97.35 Q266.15,93.651 266.943,89.391 Q267.737,85.131 268.14,81.237 Q268.542,77.343 268.689,74.56 Q268.835,71.776 268.787,69.188 L281.018,69.555 Q280.579,77.343 280.188,81.884 Q279.797,86.425 278.613,92.077 Q277.429,97.729 275.867,102.538 Q274.304,107.348 271.741,113.646 z M295.374,101.22 Q295.3,101.439 295.203,102.221 Q295.105,103.002 295.361,103.673 Q295.618,104.345 296.667,104.516 Q297.717,104.687 301.038,104.577 Q304.358,104.467 305.103,104.406 Q305.847,104.345 306.567,103.71 Q307.288,103.075 307.776,102.257 Q308.264,101.439 308.777,99.584 Q309.29,97.729 309.9,95.25 Q310.51,92.772 311.194,89.281 Q311.877,85.79 312.341,82.58 Q312.805,79.369 312.329,78.417 Q311.853,77.465 310.51,77.404 Q309.167,77.343 306.409,77.343 Q303.65,77.343 302.661,77.404 Q301.672,77.465 301.074,78.051 Q300.476,78.637 300.269,79.564 Q300.061,80.492 299.475,84.105 Q298.889,87.719 298.413,89.965 Q297.937,92.211 297.461,94.005 Q296.985,95.8 295.374,101.22 z M281.238,108.397 Q284.412,99.511 285.278,96.544 Q286.145,93.578 286.914,89.867 Q287.683,86.156 288.367,80.224 Q289.05,74.291 289.417,72.741 Q289.783,71.19 291.357,70.238 Q292.932,69.286 295.752,69.188 Q298.572,69.091 306.494,69.091 Q314.417,69.091 318.274,69.188 Q322.131,69.286 323.743,70.861 Q325.354,72.436 324.951,77.721 Q324.548,83.007 323.499,88.744 Q322.449,94.481 321.35,98.571 Q320.251,102.66 319.25,105.712 Q318.25,108.764 317.065,110.119 Q315.881,111.474 314.014,112.536 Q312.146,113.598 310.095,113.598 Q308.044,113.598 298.645,113.598 Q289.246,113.598 286.011,113.598 Q282.776,113.598 281.836,112.487 Q280.896,111.376 280.969,110.07 Q281.042,108.764 281.238,108.397 z M100.574,127.481 Q106.702,127.481 108.777,129.044 Q110.852,130.606 110.669,133.377 Q110.486,136.148 109.9,139.444 L98.645,139.444 Q99.939,135.074 96.35,135.074 Q92.761,135.074 90.015,135.074 Q87.268,135.074 86.926,136.466 Q86.584,137.857 86.072,140.079 Q85.559,142.301 85.95,143.216 Q86.34,144.132 87.585,144.693 Q88.831,145.255 93.201,144.999 Q97.571,144.742 100.732,145.78 Q103.894,146.817 105.322,150.162 Q106.75,153.507 104.993,159.464 Q103.235,165.421 101.331,167.752 Q99.426,170.084 92.859,171.646 L78.748,171.646 Q64.88,172.159 68.616,161.783 L70.422,157.657 L81.531,157.657 L80.481,160.782 Q80.579,162.491 80.994,162.943 Q81.409,163.395 89.026,163.224 Q93.152,162.735 94.153,158.744 Q95.154,154.752 93.237,153.69 Q91.321,152.628 86.877,152.872 Q82.434,153.116 78.638,152.677 Q74.841,152.237 73.486,150.565 Q72.131,148.893 73.218,144.376 Q74.304,139.859 74.939,136.893 Q75.574,133.927 76.05,132.267 Q76.526,130.606 78.125,129.312 Q79.724,128.019 82.324,127.665 Q84.924,127.311 91.785,127.311 Q98.645,127.311 100.574,127.481 z M111.023,171.671 Q113.635,164.811 115.21,160.086 Q116.785,155.362 118.115,149.613 Q119.446,143.863 120.007,139.042 Q120.569,134.22 120.935,130.887 Q121.301,127.555 121.204,127.726 L143.201,127.726 Q151.55,127.726 153.076,129.679 Q154.602,131.632 154.48,134.964 Q154.358,138.297 154.102,140.799 Q153.845,143.302 152.686,146.854 Q151.526,150.406 150.879,151.944 Q150.232,153.482 148.547,154.911 Q146.863,156.339 145.142,156.876 Q143.42,157.413 128.333,157.267 L127.82,158.683 L125.012,166.861 L122.961,171.671 L111.365,171.671 z M132.434,135.88 Q132.068,140.543 131.335,144.339 Q130.603,148.136 130.676,148.673 Q138,148.673 139.465,148.331 Q140.93,147.989 141.687,146.769 Q142.444,145.548 142.749,142.521 Q143.054,139.493 143.079,138.028 Q143.103,136.563 142.041,135.953 Q140.979,135.343 132.532,135.709 z M152.649,171.402 Q155.725,164.103 157.471,159.159 Q159.216,154.215 160.315,149.82 Q161.414,145.426 162.28,140.86 Q163.147,136.295 164.514,127.677 L176.257,127.677 L196.399,127.701 Q196.106,133.585 195.3,136.856 L174.768,136.686 Q174.158,141.056 173.547,144.01 L194.08,144.181 Q193.274,148.038 191.589,153.141 L170.959,153.141 Q168.591,160.44 167.712,162.271 L188.757,162.442 Q186.877,167.008 184.656,171.598 L152.527,171.598 z M229.626,127.481 Q235.754,127.481 237.83,129.044 Q239.905,130.606 239.722,133.377 Q239.539,136.148 238.953,139.444 L227.698,139.444 Q228.992,135.074 225.403,135.074 Q221.814,135.074 219.067,135.074 Q216.321,135.074 215.979,136.466 Q215.637,137.857 215.125,140.079 Q214.612,142.301 215.002,143.216 Q215.393,144.132 216.638,144.693 Q217.883,145.255 222.253,144.999 Q226.624,144.742 229.785,145.78 Q232.947,146.817 234.375,150.162 Q235.803,153.507 234.045,159.464 Q232.288,165.421 230.383,167.752 Q228.479,170.084 221.912,171.646 L207.8,171.646 Q193.933,172.159 197.668,161.783 L199.475,157.657 L210.583,157.657 L209.534,160.782 Q209.631,162.491 210.046,162.943 Q210.461,163.395 218.079,163.224 Q222.205,162.735 223.206,158.744 Q224.207,154.752 222.29,153.69 Q220.374,152.628 215.93,152.872 Q211.487,153.116 207.69,152.677 Q203.894,152.237 202.539,150.565 Q201.184,148.893 202.271,144.376 Q203.357,139.859 203.992,136.893 Q204.626,133.927 205.103,132.267 Q205.579,130.606 207.178,129.312 Q208.777,128.019 211.377,127.665 Q213.977,127.311 220.837,127.311 Q227.698,127.311 229.626,127.481 z M281.409,127.506 Q281.946,130.265 282.166,133.231 Q282.385,136.197 282.031,140.641 Q281.677,145.084 280.652,150.089 Q279.626,155.094 278.333,159.635 Q277.039,164.176 274.207,171.573 L263.147,171.573 L265.955,163.419 L266.907,159.513 L255.896,159.342 L254.016,165.274 L251.257,171.573 L239.88,171.573 Q242.371,165.47 243.665,161.295 Q244.958,157.12 246.021,153.055 Q247.083,148.99 247.705,144.73 Q248.328,140.47 249.06,136.197 Q249.792,131.925 252.686,129.52 Q255.579,127.115 257.544,127.018 Q259.509,126.92 265.186,126.932 Q270.862,126.944 281.409,127.506 z M257.141,150.113 L268.787,150.284 Q270.203,144.718 270.374,142.606 Q270.544,140.494 271.082,135.294 Q262.61,134.732 261.536,135.843 Q260.461,136.954 259.814,139.164 Q259.167,141.373 257.263,149.918 z" fill-opacity="0" stroke="#CC1717" stroke-width="1"/>
    </g>
  </g>
</svg>
